<?xml version="1.0" standalone="no"?>
<!DOCTYPE svg PUBLIC "-//W3C//DTD SVG 1.1//EN" "http://www.w3.org/Graphics/SVG/1.1/DTD/svg11.dtd" >
<svg xmlns="http://www.w3.org/2000/svg">
<metadata>Generated by IcoMoon</metadata>
<defs>
<font id="icomoon" horiz-adv-x="1024">
<font-face units-per-em="1024" ascent="960" descent="-64" />
<missing-glyph horiz-adv-x="1024" />
<glyph unicode="&#x20;" horiz-adv-x="512" d="" />
<glyph unicode="&#xe900;" glyph-name="calendar" d="M38.4 128h147.2v-89.6c0-19.2 12.8-32 32-32h768c19.2 0 32 12.8 32 32v761.6c0 19.2-12.8 32-32 32h-147.2v25.6c0 19.2-12.8 32-32 32s-32-12.8-32-32v-32h-147.2v32c0 19.2-12.8 32-25.6 32s-32-12.8-32-32v-32h-147.2v32c0 19.2-12.8 32-25.6 32-19.2 0-32-12.8-32-32v-32h-147.2c-19.2 0-32-12.8-32-32v-179.2c0-217.6-89.6-384-166.4-448-6.4-6.4-12.8-19.2-6.4-32 6.4 0 12.8-6.4 25.6-6.4zM953.6 70.4h-710.4v57.6h563.2c6.4 0 12.8 0 19.2 6.4 38.4 32 89.6 102.4 128 192 0 0 0-256 0-256zM243.2 774.4h121.6v-32c0-19.2 12.8-32 32-32s32 12.8 32 32v32h147.2v-32c0-19.2 12.8-32 32-32s32 12.8 32 32v32h147.2v-32c0-19.2 12.8-32 32-32s32 12.8 32 32v32h115.2v-115.2h-723.2v115.2zM243.2 595.2h710.4c-6.4-185.6-76.8-332.8-160-409.6h-684.8c89.6 115.2 134.4 262.4 134.4 409.6z" />
<glyph unicode="&#xe901;" glyph-name="camera" d="M972.8 307.2c19.2 0 38.4 19.2 38.4 38.4v256c0 83.2-70.4 153.6-153.6 153.6h-57.6c-19.2 0-32 12.8-38.4 25.6l-12.8 32c-19.2 44.8-57.6 76.8-108.8 76.8h-256c-51.2 0-96-32-108.8-76.8l-12.8-25.6c-6.4-19.2-19.2-25.6-38.4-25.6h-57.6c-83.2 0-153.6-70.4-153.6-153.6v-448c0-83.2 70.4-153.6 153.6-153.6h684.8c83.2 0 153.6 70.4 153.6 153.6 0 19.2-19.2 38.4-38.4 38.4s-38.4-19.2-38.4-38.4c0-44.8-32-76.8-76.8-76.8h-684.8c-44.8 0-76.8 32-76.8 76.8v448c0 44.8 32 76.8 76.8 76.8h57.6c51.2 0 96 32 108.8 76.8l12.8 38.4c12.8 12.8 25.6 19.2 38.4 19.2h249.6c19.2 0 32-12.8 38.4-25.6l12.8-32c19.2-44.8 57.6-76.8 108.8-76.8h57.6c44.8 0 76.8-32 76.8-76.8v-256c6.4-25.6 25.6-44.8 44.8-44.8zM505.6 601.6c-134.4 0-243.2-108.8-243.2-243.2s108.8-243.2 243.2-243.2c134.4 0 243.2 108.8 243.2 243.2s-108.8 243.2-243.2 243.2zM505.6 192c-89.6 0-166.4 76.8-166.4 166.4s76.8 166.4 166.4 166.4c89.6 0 166.4-76.8 166.4-166.4s-70.4-166.4-166.4-166.4z" />
<glyph unicode="&#xe902;" glyph-name="check-circle" d="M512 953.6c-281.6 0-505.6-224-505.6-505.6s230.4-505.6 505.6-505.6 505.6 230.4 505.6 505.6-224 505.6-505.6 505.6zM723.2 531.2l-243.2-243.2c-19.2-19.2-51.2-19.2-70.4 0l-108.8 115.2c-19.2 19.2-19.2 51.2 0 70.4s51.2 19.2 70.4 0l76.8-76.8 204.8 204.8c19.2 19.2 51.2 19.2 70.4 0s19.2-44.8 0-70.4z" />
<glyph unicode="&#xe903;" glyph-name="complete-icon" d="M992 608c-6.4 12.8-19.2 25.6-38.4 19.2-12.8-6.4-25.6-19.2-19.2-38.4 12.8-44.8 25.6-96 25.6-140.8 0-243.2-198.4-448-448-448s-448 198.4-448 448 198.4 448 448 448c83.2 0 160-25.6 230.4-64 12.8-6.4 32-6.4 38.4 6.4s6.4 32-6.4 38.4c-76.8 51.2-166.4 76.8-262.4 76.8-281.6 0-505.6-224-505.6-505.6s224-505.6 505.6-505.6 505.6 224 505.6 505.6c0 57.6-6.4 108.8-25.6 160zM403.2 448l-108.8 102.4c-12.8 12.8-25.6 12.8-38.4 0s-12.8-32 0-44.8l102.4-96 134.4-121.6c6.4-6.4 12.8-6.4 19.2-6.4v0c6.4 0 12.8 6.4 19.2 12.8l416 486.4c12.8 12.8 6.4 32-6.4 38.4-12.8 12.8-32 6.4-38.4-6.4l-390.4-460.8-108.8 96z" />
<glyph unicode="&#xe904;" glyph-name="deadline" d="M748.8 121.6c6.4 0 19.2 0 25.6 6.4s12.8 12.8 19.2 19.2c6.4 6.4 6.4 19.2 0 25.6 0 6.4-6.4 19.2-12.8 25.6s-12.8 12.8-25.6 12.8c-6.4 0-19.2 0-25.6 0-6.4-6.4-12.8-6.4-19.2-19.2-6.4-6.4-6.4-19.2-6.4-32s6.4-25.6 12.8-32c12.8 0 19.2-6.4 32-6.4zM518.4 307.2c6.4 0 19.2 0 25.6 6.4s12.8 6.4 19.2 19.2c6.4 6.4 6.4 19.2 0 25.6 0 12.8-6.4 25.6-12.8 25.6-6.4 12.8-12.8 12.8-25.6 12.8-6.4 0-19.2 0-25.6 0s-12.8-12.8-19.2-19.2c-6.4-6.4-6.4-12.8-6.4-25.6s6.4-32 12.8-32c6.4-6.4 19.2-12.8 32-12.8zM934.4 825.6c-19.2 25.6-51.2 38.4-89.6 38.4h-44.8v44.8c0 12.8-6.4 25.6-12.8 32-12.8 12.8-25.6 19.2-38.4 19.2s-25.6-6.4-32-12.8c-6.4-6.4-12.8-19.2-12.8-38.4v-44.8h-371.2v44.8c0 12.8-6.4 25.6-12.8 32-12.8 12.8-19.2 19.2-32 19.2s-25.6-6.4-38.4-12.8c-6.4-6.4-12.8-19.2-12.8-38.4v-44.8h-44.8c-38.4 0-70.4-6.4-96-32-25.6-32-44.8-70.4-44.8-102.4v-652.8c0-38.4 12.8-70.4 38.4-96s64-38.4 96-38.4h652.8c38.4 0 70.4 12.8 96 38.4s38.4 64 38.4 96v652.8c0 38.4-12.8 70.4-38.4 96zM147.2 729.6c0 12.8 6.4 25.6 12.8 32s19.2 6.4 32 6.4h44.8v-44.8c0-12.8 6.4-25.6 12.8-32 12.8-12.8 25.6-19.2 38.4-19.2s25.6 12.8 32 19.2c6.4 12.8 12.8 25.6 12.8 38.4v38.4h371.2v-44.8c0-12.8 6.4-25.6 12.8-32s19.2-12.8 32-12.8 25.6 6.4 32 12.8c6.4 6.4 12.8 19.2 12.8 32v44.8h44.8c12.8 0 25.6-6.4 32-12.8s12.8-19.2 12.8-32v-140.8h-736v147.2zM889.6 76.8c0-12.8-6.4-25.6-12.8-32s-19.2-12.8-32-12.8h-652.8c-12.8 0-25.6 6.4-32 12.8s-12.8 19.2-12.8 32v416h742.4v-416zM288 307.2c6.4 0 19.2 0 25.6 6.4s12.8 6.4 12.8 19.2c6.4 6.4 6.4 19.2 0 25.6 0 12.8 0 25.6-6.4 25.6-6.4 12.8-19.2 12.8-25.6 12.8s-19.2 0-25.6 0c-6.4 0-19.2-12.8-19.2-19.2-6.4-6.4-12.8-12.8-12.8-25.6s6.4-32 12.8-32c12.8-6.4 25.6-12.8 38.4-12.8zM518.4 121.6c6.4 0 19.2 0 25.6 6.4s12.8 12.8 19.2 19.2c6.4 6.4 6.4 19.2 0 25.6 0 6.4-6.4 19.2-12.8 25.6s-12.8 12.8-25.6 12.8c-6.4 0-19.2 0-25.6 0-6.4-6.4-12.8-6.4-19.2-19.2-6.4-6.4-6.4-19.2-6.4-25.6 0-12.8 6.4-25.6 12.8-32s19.2-12.8 32-12.8zM748.8 307.2c6.4 0 19.2 0 25.6 6.4s12.8 12.8 19.2 19.2c6.4 6.4 6.4 19.2 0 25.6 0 6.4-6.4 19.2-12.8 25.6-6.4 0-12.8 12.8-25.6 12.8-6.4 0-19.2 0-25.6 0-6.4-12.8-12.8-12.8-19.2-19.2s-6.4-25.6-6.4-25.6c0-12.8 6.4-25.6 12.8-32 12.8-6.4 19.2-12.8 32-12.8zM320 204.8c-6.4 6.4-12.8 12.8-25.6 12.8-6.4 0-19.2 0-25.6 0-6.4-6.4-19.2-12.8-19.2-25.6-6.4-6.4-6.4-19.2-6.4-25.6 0-12.8 6.4-25.6 12.8-32s19.2-12.8 32-12.8c6.4 0 19.2 0 25.6 6.4 6.4 0 12.8 12.8 12.8 25.6 6.4 6.4 6.4 19.2 0 25.6 0 6.4 0 12.8-6.4 25.6z" />
<glyph unicode="&#xe905;" glyph-name="donated" d="M633.6 364.8h12.8c288 172.8 300.8 339.2 294.4 396.8-6.4 32-19.2 70.4-44.8 96s-51.2 44.8-89.6 57.6c-6.4 0-6.4 0-12.8 0s-6.4-6.4-6.4-12.8 0-6.4 0-12.8c0-6.4 6.4-6.4 12.8-6.4 25.6-6.4 51.2-25.6 70.4-44.8s32-51.2 32-76.8c6.4-57.6 0-198.4-268.8-364.8-249.6 153.6-268.8 294.4-262.4 352 0 25.6 12.8 57.6 25.6 76.8 12.8 25.6 38.4 38.4 64 51.2 6.4 0 6.4 6.4 6.4 6.4s0 6.4 0 12.8-6.4 6.4-6.4 6.4-6.4 0-12.8 0c-32-12.8-57.6-32-76.8-57.6-19.2-32-32-64-32-96-6.4-128 96-268.8 294.4-384zM550.4 876.8v0c32-6.4 57.6-25.6 76.8-44.8 0 0 6.4 0 6.4-6.4h12.8c0 0 6.4 0 6.4 6.4 12.8 19.2 38.4 32 57.6 44.8 6.4 0 6.4 6.4 6.4 6.4 0 6.4 0 6.4 0 12.8s-6.4 6.4-6.4 6.4-6.4 0-12.8 0c-19.2-6.4-38.4-19.2-57.6-38.4-19.2 19.2-51.2 38.4-76.8 44.8h-12.8c-6.4 0-6.4-6.4-6.4-6.4 0-6.4 0-6.4 0-12.8s6.4-6.4 6.4-12.8zM998.4 396.8c-12.8 19.2-32 25.6-51.2 32s-38.4 0-57.6-12.8l-243.2-153.6-236.8 121.6c-38.4 12.8-76.8 25.6-121.6 25.6s-83.2-6.4-121.6-25.6l-153.6-64-6.4-6.4v-288l6.4-6.4h12.8l57.6 38.4c32 25.6 70.4 38.4 115.2 38.4s83.2 0 121.6-12.8l211.2-83.2c0 0 0 0 6.4 0h12.8c12.8 6.4 102.4 19.2 108.8 25.6l332.8 262.4c12.8 12.8 25.6 32 25.6 51.2s-6.4 38.4-19.2 57.6zM966.4 313.6l-332.8-262.4c-6.4-6.4-76.8-19.2-96-19.2l-204.8 83.2c-44.8 19.2-89.6 25.6-134.4 19.2s-89.6-19.2-128-44.8l-32-19.2v224l140.8 64c32 12.8 70.4 19.2 108.8 19.2s76.8-12.8 108.8-25.6l243.2-121.6c6.4-6.4 12.8-12.8 19.2-19.2s6.4-19.2 0-25.6c-6.4-6.4-12.8-19.2-19.2-19.2-6.4-6.4-19.2-6.4-25.6 0l-224 64c-6.4 0-6.4 0-12.8 0s-6.4-6.4-6.4-6.4 0-6.4 0-12.8 6.4-6.4 6.4-6.4l224-70.4c12.8-6.4 32-6.4 44.8 0s25.6 12.8 38.4 25.6c6.4 12.8 12.8 25.6 12.8 44.8 0 12.8-6.4 32-12.8 44.8l230.4 147.2c12.8 6.4 19.2 6.4 32 6.4s19.2-6.4 25.6-19.2c6.4-6.4 12.8-19.2 6.4-32 0-19.2-6.4-32-12.8-38.4z" />
<glyph unicode="&#xe906;" glyph-name="faq-arrow" d="M505.6 352l345.6 339.2c19.2 19.2 44.8 25.6 70.4 25.6s51.2-12.8 70.4-25.6c6.4-6.4 19.2-19.2 19.2-32 6.4-12.8 6.4-25.6 6.4-38.4s0-25.6-6.4-38.4-12.8-19.2-19.2-32l-409.6-409.6c-6.4-6.4-19.2-19.2-32-19.2s-32 0-44.8 0-25.6 0-38.4 6.4-19.2 12.8-32 19.2l-409.6 409.6c-6.4 6.4-12.8 19.2-12.8 32-6.4 12.8-6.4 25.6-6.4 38.4s0 25.6 6.4 38.4c6.4 6.4 12.8 19.2 19.2 25.6 19.2 19.2 44.8 25.6 70.4 25.6s44.8-6.4 64-25.6l339.2-339.2z" />
<glyph unicode="&#xe907;" glyph-name="logo" d="M1000.815 543.96c-40.574 81.791-70.199 167.447-108.84 249.882-9.76 22.382-27.54 39.744-49.622 48.726l-0.612 0.22c-65.691 28.337-133.313 52.81-197.716 80.503-32.758 16.263-70.77 29.010-110.686 36.306l-2.662 0.404h-47.658c-27.074-4.728-51.080-11.657-73.94-20.834l2.453 0.87c-80.503-40.574-163.582-68.911-244.086-108.84-22.634-9.906-40.328-27.6-49.993-49.618l-0.241-0.616c-28.337-64.403-52.81-133.313-80.503-198.36-16.145-32.553-28.88-70.332-36.288-109.986l-0.422-2.718c0.323-1.549 0.508-3.329 0.508-5.152s-0.185-3.603-0.537-5.322l0.029 0.17v-33.489c4.072-27.478 9.913-51.814 17.646-75.29l-0.901 3.159c39.93-82.435 70.199-166.803 112.060-249.882 10.629-22.332 28.072-39.984 49.607-50.599l0.627-0.279c64.403-28.337 133.957-50.234 199.004-80.503 32.428-15.628 70.065-27.736 109.546-34.425l2.515-0.352h10.304s0 0 0 0h34.777c25.078 4.67 46.708 10.467 67.655 17.725l-3.253-0.981c85.011 39.286 173.243 68.911 251.814 103.688 23.569 10.189 41.977 28.597 51.92 51.529l0.246 0.637c21.897 48.946 38.642 99.18 59.894 151.346 24.465 45.56 43.647 98.386 54.775 154.118l0.611 3.668c-0.468 1.245-0.738 2.684-0.738 4.186s0.271 2.941 0.766 4.271l-0.028-0.085v38.642c-8.372 28.337-8.372 53.454-18.033 77.283zM826.284 135.648l-316.216-133.957-316.86 128.805-134.601 314.284 126.873 322.013 316.216 134.601 318.148-128.805 133.957-317.504zM354.858 238.048v68.911l132.025 149.414-133.957 139.109v64.403h306.556c1.074-10.331 1.686-22.322 1.686-34.455s-0.612-24.124-1.808-35.943l0.122 1.488h-204.156c41.346-49.899 83.454-94.864 128.11-137.168l0.695-0.653-133.313-146.194h209.308c0.615-10.487 0.966-22.752 0.966-35.099s-0.351-24.612-1.042-36.785l0.076 1.686h-305.268z" />
<glyph unicode="&#xe908;" glyph-name="moon" d="M1011.2 537.6c-12.8 89.6-44.8 172.8-96 243.2s-121.6 128-198.4 166.4c-6.4 0-12.8 6.4-19.2 0-6.4 0-12.8-6.4-19.2-12.8s-12.8-12.8-12.8-19.2 0-12.8 0-25.6c6.4-38.4 12.8-70.4 12.8-108.8v0c0-115.2-44.8-230.4-128-307.2-76.8-83.2-185.6-128-300.8-128v0c-64 0-121.6 12.8-179.2 38.4-6.4 6.4-19.2 12.8-25.6 6.4-6.4 0-12.8-6.4-19.2-12.8v0 0c-6.4 0-12.8-6.4-12.8-12.8s0-19.2 0-25.6v0c19.2-89.6 64-166.4 121.6-230.4s134.4-115.2 217.6-140.8 172.8-32 256-19.2c83.2 19.2 166.4 57.6 230.4 115.2s115.2 134.4 147.2 217.6c25.6 76.8 38.4 166.4 25.6 256zM902.4 320c-32-83.2-83.2-160-153.6-211.2-64-51.2-147.2-83.2-236.8-83.2v0h-6.4c-76.8 0-153.6 19.2-217.6 64s-121.6 96-160 166.4l-6.4 19.2 19.2-6.4c32-6.4 70.4-12.8 108.8-12.8v0c134.4 0 262.4 57.6 358.4 160s147.2 236.8 147.2 371.2v32l12.8-12.8c70.4-57.6 115.2-134.4 140.8-224 25.6-83.2 25.6-172.8-6.4-262.4z" />
<glyph unicode="&#xe909;" glyph-name="navbarToggle" d="M972.8 460.8h-921.6c-12.8 0-25.6-6.4-38.4-12.8-6.4-6.4-12.8-19.2-12.8-38.4 0-12.8 6.4-25.6 12.8-38.4 12.8-12.8 25.6-12.8 38.4-12.8h921.6c12.8 0 25.6 6.4 38.4 12.8 6.4 12.8 12.8 25.6 12.8 38.4s-6.4 25.6-12.8 38.4c-12.8 12.8-25.6 12.8-38.4 12.8zM51.2 563.2h921.6c12.8 0 25.6 6.4 38.4 12.8 6.4 12.8 12.8 25.6 12.8 38.4s-6.4 25.6-12.8 38.4c-12.8 12.8-25.6 12.8-38.4 12.8h-921.6c-12.8 0-25.6-6.4-38.4-12.8-6.4-6.4-12.8-19.2-12.8-38.4 0-12.8 6.4-25.6 12.8-38.4 12.8-6.4 25.6-12.8 38.4-12.8zM972.8 256h-921.6c-12.8 0-25.6-6.4-38.4-12.8-6.4-6.4-12.8-19.2-12.8-38.4s6.4-25.6 12.8-38.4c12.8-12.8 25.6-12.8 38.4-12.8h921.6c12.8 0 25.6 6.4 38.4 12.8s12.8 25.6 12.8 38.4-6.4 25.6-12.8 38.4c-12.8 12.8-25.6 12.8-38.4 12.8z" />
<glyph unicode="&#xe90a;" glyph-name="next-icon_1" d="M281.008 426.941v28.298l14.478 14.478h14.478l334.314 6.581-156.627 154.653c-4.611 4.736-7.455 11.214-7.455 18.355 0 1.185 0.078 2.353 0.23 3.496l-0.015-0.134c-0.113 0.904-0.177 1.951-0.177 3.012 0 7.037 2.832 13.413 7.419 18.049l-0.002-0.002c4.538 4.601 10.84 7.451 17.809 7.451 1.146 0 2.274-0.077 3.379-0.226l-0.129 0.014c1.010 0.137 2.177 0.216 3.362 0.216 7.141 0 13.618-2.844 18.361-7.46l-0.006 0.006 205.985-213.224 7.239-7.239v-19.743c0-0.010 0-0.021 0-0.033 0-3.635-2.946-6.581-6.581-6.581-0.232 0-0.461 0.012-0.686 0.035l0.028-0.002-205.985-206.643c-4.736-4.611-11.214-7.455-18.355-7.455-1.185 0-2.353 0.078-3.496 0.23l0.134-0.015c-0.976-0.135-2.104-0.212-3.25-0.212-6.968 0-13.271 2.85-17.806 7.448l-0.003 0.003c0 7.239-7.239 14.478-7.239 21.717-0.113 0.904-0.177 1.951-0.177 3.012 0 7.037 2.832 13.413 7.419 18.049l-0.002-0.002 156.627 149.388h-348.792zM873.296 87.362c-46.438-45.557-100.887-83.152-161.006-110.447l-3.519-1.43c-58.341-24.641-126.145-39.118-197.287-39.485l-0.142-0.001c-1.609-0.019-3.509-0.030-5.412-0.030-103.665 0-199.855 32.001-279.232 86.664l1.661-1.081c-83.449 57.342-148.833 135.41-189.486 226.9l-1.362 3.434c-23.666 56.442-37.415 122.037-37.415 190.842 0 37.297 4.040 73.65 11.706 108.646l-0.615-3.344c20.254 103.524 69.254 193.299 138.26 263.3l-0.059-0.060c69.94 68.947 159.715 117.946 259.994 137.669l3.245 0.532c31.652 7.051 68.005 11.091 105.302 11.091 68.806 0 134.4-13.749 194.185-38.65l-3.343 1.234c94.924-42.016 172.992-107.4 229.151-189.028l1.184-1.82c51.766-80.183 83.356-177.679 85.543-282.404l0.010-0.578c0.002-0.514 0.003-1.123 0.003-1.732 0-141.192-58.199-268.792-151.916-360.117l-0.108-0.104zM182.293 120.267c85.792-80.878 201.512-130.834 328.893-131.619l0.156-0.001c4.537-0.164 9.867-0.258 15.218-0.258 92.374 0 178.24 27.865 249.65 75.649l-1.629-1.026c74.31 53.366 133.055 123.93 171.081 206.047l1.341 3.228c17.856 51.989 28.166 111.892 28.166 174.203 0 32.614-2.824 64.569-8.242 95.633l0.477-3.306c-17.435 94.475-62.727 176.289-126.916 238.795l-0.097 0.094c-62.927 64.15-144.909 109.401-236.777 126.582l-2.771 0.431c-29.456 6.404-63.295 10.071-97.989 10.071-62.519 0-122.256-11.91-177.067-33.584l3.262 1.137c-84.4-39.65-154.223-98.081-206.234-170.209l-1.067-1.555c-44.624-75.519-72.116-165.876-75.004-262.414l-0.020-0.825c-0.017-1.452-0.026-3.168-0.026-4.886 0-126.093 51.619-240.13 134.879-322.132l0.057-0.056z" />
<glyph unicode="&#xe90b;" glyph-name="next-page" d="M697.6 486.4c6.4-6.4 6.4-12.8 12.8-19.2 6.4-12.8 6.4-25.6 0-38.4 0-6.4-6.4-12.8-12.8-19.2l-153.6-153.6c-6.4-6.4-19.2-12.8-38.4-12.8-12.8 0-25.6 6.4-38.4 12.8-6.4 6.4-12.8 19.2-12.8 38.4 0 12.8 6.4 25.6 12.8 38.4l64 64h-172.8c-12.8 0-25.6 6.4-38.4 12.8-6.4 12.8-6.4 25.6-6.4 38.4s6.4 25.6 12.8 38.4c6.4 6.4 19.2 12.8 38.4 12.8h179.2l-64 64c-6.4 6.4-12.8 12.8-12.8 19.2s-6.4 12.8-6.4 19.2c0 6.4 0 12.8 6.4 19.2 0 6.4 6.4 12.8 12.8 19.2 0 0 6.4 0 12.8 6.4 6.4 0 12.8 6.4 19.2 6.4s12.8 0 19.2-6.4c6.4-6.4 12.8-6.4 19.2-12.8l147.2-147.2zM1017.6 448c0-102.4-32-198.4-83.2-281.6-57.6-83.2-134.4-147.2-224-185.6s-192-51.2-288-25.6c-96 19.2-185.6 70.4-256 140.8s-115.2 160-140.8 256c-25.6 96-19.2 198.4 19.2 288s102.4 172.8 185.6 224 179.2 89.6 281.6 89.6c64 0 134.4-12.8 192-38.4 64-25.6 115.2-64 166.4-108.8 89.6-96 147.2-224 147.2-358.4zM108.8 448c0-76.8 25.6-160 70.4-224s108.8-115.2 179.2-147.2 153.6-38.4 230.4-25.6c76.8 12.8 147.2 51.2 204.8 108.8s96 128 108.8 204.8 6.4 160-25.6 230.4-83.2 134.4-147.2 179.2-140.8 76.8-217.6 76.8c-108.8 0-211.2-44.8-281.6-115.2-76.8-76.8-121.6-179.2-121.6-288z" />
<glyph unicode="&#xe90c;" glyph-name="piggy" d="M851.2 409.6c0 6.4-6.4 12.8-12.8 12.8-6.4-6.4-6.4-6.4-6.4-12.8 0-12.8-12.8-25.6-19.2-25.6-12.8 0-19.2 6.4-19.2 19.2 0 6.4-6.4 12.8-12.8 12.8-12.8 0-12.8 0-12.8-6.4 0-25.6 19.2-51.2 51.2-51.2 12.8 6.4 32 25.6 32 51.2zM979.2 416l-44.8 12.8c-6.4 0-6.4 6.4-12.8 12.8-6.4 25.6-19.2 51.2-38.4 76.8-6.4 12.8-19.2 19.2-25.6 32 6.4 25.6 6.4 57.6 6.4 89.6 0 38.4-6.4 57.6-25.6 70.4-6.4 6.4-32 19.2-166.4-44.8l-6.4-6.4c-6.4 0-19.2 6.4-25.6 6.4 0 0 0 0-6.4 0 12.8 25.6 19.2 51.2 19.2 76.8 0 6.4-6.4 12.8-12.8 12.8s-12.8-6.4-12.8-12.8c0-44.8-19.2-83.2-51.2-115.2-12.8-19.2-32-38.4-64-38.4-38.4 6.4-76.8 6.4-121.6 0-25.6 6.4-44.8 19.2-64 38.4-19.2 25.6-38.4 76.8-38.4 121.6s19.2 83.2 44.8 115.2 76.8 51.2 121.6 51.2c44.8 6.4 89.6-19.2 121.6-51.2 12.8-12.8 25.6-25.6 32-44.8 6.4-6.4 12.8-6.4 25.6 0 6.4 12.8 19.2 12.8 6.4 25.6-12.8 19.2-19.2 32-32 51.2-44.8 32-96 57.6-147.2 57.6-57.6 0-108.8-25.6-140.8-57.6-44.8-38.4-64-96-64-147.2s19.2-108.8 64-140.8c12.8-19.2 19.2-19.2 32-32 0 0-19.2 0-19.2 0-12.8-6.4-25.6-12.8-12.8-32 0-6.4 12.8-12.8 19.2-6.4 83.2 25.6 172.8 25.6 249.6 0 0 0 0 0 6.4 0s12.8 6.4 12.8 12.8c0 6.4 0 19.2-6.4 19.2-12.8 6.4-25.6 6.4-38.4 6.4 12.8 12.8 25.6 25.6 44.8 32 12.8 12.8 19.2 19.2 19.2 32 12.8 0 12.8 0 12.8 0 6.4 0 12.8 0 12.8-6.4-6.4-32-6.4-64 0-89.6s19.2-44.8 38.4-57.6c19.2-19.2 51.2-25.6 70.4-25.6s32 6.4 44.8 12.8c12.8 6.4 25.6 25.6 32 51.2 6.4-12.8 6.4-12.8 12.8-12.8 12.8-19.2 25.6-44.8 32-70.4 6.4-12.8 19.2-25.6 32-32l44.8-12.8c12.8-12.8 19.2-12.8 19.2-25.6v-70.4c0-12.8-6.4-19.2-19.2-25.6l-64-19.2c-12.8-6.4-19.2-12.8-25.6-19.2-25.6-44.8-70.4-83.2-121.6-115.2-6.4-6.4-12.8-6.4-12.8-19.2l-19.2-115.2-12.8-6.4h-64c-6.4 0-6.4 0-6.4 6.4l-12.8 64c0 12.8-12.8 12.8-32 12.8-25.6 0-64 0-89.6 0s-44.8 0-70.4 6.4c-12.8 0-25.6-6.4-25.6-19.2l-12.8-57.6-6.4-6.4h-64c-6.4 0-6.4 0-6.4 6.4l-19.2 108.8c0 6.4-6.4 12.8-12.8 19.2-96 44.8-140.8 128-140.8 236.8 0 57.6 12.8 102.4 38.4 147.2 25.6 38.4 64 70.4 96 96 6.4 6.4 6.4 12.8 6.4 19.2-6.4 6.4-12.8 6.4-25.6 0-76.8-44.8-128-121.6-140.8-211.2 0 0 0 0-6.4 0 0 12.8 0 19.2-6.4 32-6.4 19.2-25.6 38.4-38.4 38.4s-32-6.4-38.4-19.2c-12.8-12.8-12.8-32-12.8-44.8 6.4-19.2 32-19.2 64-32 0 0 0 0 0-6.4-25.6-25.6-44.8-25.6-64-25.6 0 0-12.8-6.4-12.8-19.2 0 0 12.8-12.8 12.8-12.8s0 0 6.4 0c25.6 0 44.8 12.8 76.8 51.2 12.8 6.4 12.8 12.8 19.2 12.8h6.4c0-6.4 0-19.2 0-25.6 0-64 12.8-115.2 44.8-166.4 25.6-44.8 64-76.8 115.2-102.4l19.2-102.4c6.4-19.2 19.2-32 38.4-32h70.4c19.2 0 32 12.8 38.4 32v44.8c19.2 0 44.8-6.4 64-6.4 32 0 64 0 89.6 6.4l12.8-57.6c6.4-19.2 19.2-32 38.4-32h70.4c19.2 0 32 12.8 38.4 32l19.2 108.8c57.6 32 102.4 70.4 134.4 121.6 0 6.4 6.4 6.4 6.4 6.4l70.4 19.2c25.6 6.4 38.4 32 38.4 51.2v89.6c-6.4 25.6-19.2 44.8-51.2 44.8zM844.8 601.6c-12.8-57.6-25.6-89.6-44.8-102.4s-51.2-19.2-83.2 12.8c-32 19.2-38.4 64-32 115.2 0 6.4 6.4 12.8 12.8 12.8 70.4 32 115.2 44.8 134.4 44.8v0c12.8-12.8 12.8-44.8 12.8-83.2zM76.8 416c-12.8 0-25.6 12.8-32 19.2 0 0 0 6.4 6.4 12.8v0c12.8 0 25.6 0 25.6-12.8 0 0 0-6.4 0-19.2zM512 800c6.4 0 12.8 12.8 12.8 12.8 0 19.2-25.6 19.2-44.8 19.2v12.8l-12.8 12.8c-6.4 0-6.4 0-6.4-6.4v-6.4c-25.6 0-44.8-12.8-44.8-51.2 0-32 25.6-44.8 51.2-51.2v-64c-25.6 0-32 19.2-44.8 19.2-6.4 0-12.8-6.4-12.8-12.8 0-12.8 19.2-32 57.6-32v-12.8c6.4 0 6.4 0 6.4 6.4v6.4c25.6 12.8 51.2 19.2 51.2 51.2 0 38.4-25.6 44.8-44.8 57.6v57.6c19.2 0 19.2-19.2 32-19.2zM460.8 768c-12.8 12.8-25.6 12.8-25.6 32s12.8 19.2 25.6 19.2v-51.2zM499.2 704c0-12.8-6.4-25.6-25.6-25.6v57.6c6.4 0 25.6-6.4 25.6-32z" />
<glyph unicode="&#xe90d;" glyph-name="prev-icon" d="M743.65 469.059v-28.298l-14.478-14.478h-14.478l-334.314-6.581 156.627-156.627c4.611-4.736 7.455-11.214 7.455-18.355 0-1.185-0.078-2.353-0.23-3.496l0.015 0.134c0.113-0.904 0.177-1.951 0.177-3.012 0-7.037-2.832-13.413-7.419-18.049l0.002 0.002c-4.538-4.601-10.84-7.451-17.809-7.451-1.146 0-2.274 0.077-3.379 0.226l0.129-0.014c-1.010-0.137-2.177-0.216-3.362-0.216-7.141 0-13.618 2.844-18.361 7.46l0.006-0.006-205.985 213.224-7.239 7.239v21.717c0 0.010 0 0.021 0 0.033 0 3.635 2.946 6.581 6.581 6.581 0.232 0 0.461-0.012 0.686-0.035l-0.028 0.002 205.985 206.643c4.736 4.611 11.214 7.455 18.355 7.455 1.185 0 2.353-0.078 3.496-0.23l-0.134 0.015c0.976 0.135 2.104 0.212 3.25 0.212 6.968 0 13.271-2.85 17.806-7.448l0.003-0.003c0-7.239 7.239-14.478 7.239-21.717 0.279-1.421 0.439-3.055 0.439-4.726 0-7.167-2.938-13.648-7.674-18.304l-0.004-0.004-156.627-147.414h348.792zM151.362 808.638c46.438 45.557 100.887 83.152 161.006 110.447l3.519 1.43c58.341 24.641 126.145 39.118 197.287 39.485l0.142 0.001c1.609 0.019 3.509 0.030 5.412 0.030 103.665 0 199.855-32.001 279.232-86.664l-1.661 1.081c83.449-57.342 148.833-135.41 189.486-226.9l1.362-3.434c23.666-56.442 37.415-122.037 37.415-190.842 0-37.297-4.040-73.65-11.706-108.646l0.615 3.344c-20.254-103.524-69.254-193.299-138.26-263.3l0.059 0.060c-69.94-68.947-159.715-117.946-259.994-137.669l-3.245-0.532c-31.652-7.051-68.005-11.091-105.302-11.091-68.806 0-134.4 13.749-194.185 38.65l3.343-1.234c-94.924 42.016-172.992 107.4-229.151 189.028l-1.184 1.82c-51.766 80.183-83.356 177.679-85.543 282.404l-0.010 0.578c-0.004 0.705-0.006 1.538-0.006 2.371 0 140.871 57.934 268.21 151.276 359.492l0.092 0.090zM842.365 775.075c-85.761 80.932-201.501 130.904-328.907 131.619l-0.142 0.001c-4.537 0.165-9.868 0.26-15.22 0.26-92.464 0-178.358-28.125-249.595-76.287l1.576 1.005c-73.417-52.424-131.634-121.612-169.76-202.166l-1.345-3.16c-18.718-53.623-29.529-115.437-29.529-179.776 0-31.562 2.602-62.516 7.602-92.66l-0.449 3.274c17.397-94.601 62.959-176.474 127.539-238.763l0.132-0.127c62.764-64.397 144.825-109.714 236.83-126.599l2.718-0.414c29.297-6.525 62.946-10.264 97.467-10.264 61.811 0 120.823 11.985 174.838 33.759l-3.143-1.119c85.304 39.162 155.864 97.691 208.221 170.229l1.054 1.535c44.937 75.435 72.483 165.865 75.008 262.523l0.015 0.716c0.022 1.665 0.035 3.632 0.035 5.601 0 125.664-51.644 239.266-134.866 320.739l-0.079 0.077z" />
<glyph unicode="&#xe90e;" glyph-name="prev-page-01" d="M326.4 486.4c-6.4-6.4-6.4-12.8-12.8-19.2-6.4-12.8-6.4-25.6 0-38.4 6.4-6.4 6.4-12.8 12.8-19.2l147.2-147.2c12.8-6.4 25.6-12.8 38.4-12.8s25.6 6.4 38.4 12.8c6.4 6.4 12.8 19.2 12.8 38.4 0 12.8-6.4 25.6-12.8 38.4l-64 64h179.2c12.8 0 25.6 6.4 38.4 12.8 0 6.4 6.4 19.2 6.4 32s-6.4 25.6-12.8 38.4c-6.4 6.4-19.2 12.8-38.4 12.8h-179.2l64 64c6.4 6.4 12.8 6.4 12.8 12.8s6.4 12.8 6.4 19.2c0 6.4 0 12.8-6.4 19.2 0 6.4-6.4 12.8-12.8 19.2 0 6.4-6.4 6.4-12.8 12.8-6.4 0-12.8 0-19.2 0s-12.8 0-19.2-6.4c-6.4 0-12.8 0-19.2-6.4l-147.2-147.2zM12.8 448c0-96 32-192 83.2-275.2 57.6-83.2 134.4-147.2 224-185.6s192-44.8 288-25.6 185.6 64 256 134.4 115.2 160 134.4 256c19.2 96 12.8 198.4-25.6 288s-102.4 166.4-185.6 224-179.2 83.2-275.2 83.2c-64 0-128-12.8-192-38.4-57.6-25.6-115.2-64-160-108.8-96-96-147.2-217.6-147.2-352zM908.8 448c0-76.8-25.6-153.6-64-224-44.8-64-108.8-115.2-179.2-147.2s-153.6-32-230.4-19.2-147.2 51.2-204.8 108.8-96 128-108.8 204.8-6.4 153.6 19.2 230.4c32 70.4 83.2 134.4 147.2 179.2s140.8 64 224 64c108.8 0 204.8-44.8 281.6-115.2 76.8-76.8 115.2-172.8 115.2-281.6z" />
<glyph unicode="&#xe90f;" glyph-name="share" d="M793.6 281.6c-51.2 0-89.6-19.2-121.6-51.2l-307.2 166.4c6.4 19.2 6.4 32 6.4 51.2s0 32-6.4 51.2l307.2 172.8c32-32 76.8-51.2 121.6-51.2 89.6 0 166.4 76.8 166.4 166.4s-76.8 166.4-166.4 166.4-166.4-76.8-166.4-172.8c0-12.8 0-25.6 0-38.4l-307.2-172.8c-25.6 25.6-70.4 44.8-115.2 44.8-89.6 0-166.4-76.8-166.4-166.4s76.8-166.4 166.4-166.4c44.8 0 83.2 19.2 115.2 44.8l307.2-172.8c0-12.8-6.4-25.6-6.4-38.4 0-89.6 76.8-166.4 166.4-166.4s166.4 76.8 166.4 166.4c6.4 89.6-70.4 166.4-160 166.4z" />
<glyph unicode="&#xe910;" glyph-name="tag" d="M966.4-38.4c6.4 6.4 6.4 25.6 0 32 0 0-6.4 12.8-51.2 64-44.8 57.6-121.6 134.4-121.6 134.4l-153.6 160 153.6 153.6c6.4 6.4 6.4 25.6 0 32v0c-19.2 25.6-51.2 38.4-83.2 38.4-25.6 0-57.6-12.8-76.8-25.6l-268.8 230.4c6.4 12.8 12.8 25.6 12.8 38.4 0 25.6-6.4 44.8-25.6 57.6v0c-12.8 12.8-25.6 12.8-32 6.4l-262.4-262.4c-6.4-6.4-6.4-25.6 0-32v0c12.8-12.8 38.4-25.6 57.6-25.6 12.8 0 25.6 6.4 38.4 12.8l230.4-268.8c-19.2-19.2-25.6-44.8-25.6-76.8s12.8-57.6 32-83.2v0c6.4-6.4 12.8-6.4 19.2-6.4s12.8 0 19.2 6.4l147.2 147.2 153.6-153.6c6.4-6.4 76.8-76.8 134.4-121.6s64-51.2 64-51.2 12.8-6.4 12.8-6.4v0c12.8-6.4 19.2 0 25.6 0z" />
<glyph unicode="&#xe911;" glyph-name="ticket" d="M985.6 512c6.4 0 19.2 6.4 25.6 12.8s12.8 12.8 12.8 25.6v211.2c0 6.4-6.4 19.2-12.8 25.6-6.4 0-12.8 6.4-25.6 6.4h-947.2c-12.8 0-19.2-6.4-25.6-12.8s-12.8-12.8-12.8-19.2v-211.2c0-12.8 6.4-19.2 12.8-25.6s12.8-12.8 25.6-12.8c19.2 0 38.4-6.4 51.2-19.2s19.2-32 19.2-51.2-6.4-38.4-19.2-51.2c-12.8-12.8-32-19.2-51.2-19.2-6.4 0-19.2-6.4-25.6-12.8s-12.8-12.8-12.8-19.2v-211.2c0-6.4 6.4-19.2 12.8-25.6s12.8-12.8 25.6-12.8h947.2c6.4 0 19.2 6.4 25.6 12.8s12.8 12.8 12.8 25.6v211.2c0 6.4-6.4 19.2-12.8 25.6-6.4 0-12.8 6.4-25.6 6.4-19.2 0-38.4 6.4-51.2 19.2s-19.2 32-19.2 51.2 6.4 38.4 19.2 51.2c12.8 12.8 32 19.2 51.2 19.2zM876.8 352c19.2-25.6 38.4-38.4 64-51.2l12.8-6.4v-134.4h-563.2v19.2c0 6.4-6.4 19.2-12.8 25.6s-12.8 12.8-25.6 12.8c-6.4 0-19.2-6.4-25.6-12.8s-6.4-19.2-6.4-25.6v-19.2h-249.6v147.2l12.8 6.4c25.6 12.8 51.2 25.6 64 51.2 19.2 25.6 25.6 51.2 25.6 83.2 0 25.6-6.4 57.6-25.6 83.2s-38.4 38.4-64 51.2l-12.8-6.4v147.2h249.6v-19.2c0-6.4 0-12.8 6.4-19.2s12.8-12.8 25.6-12.8c6.4 0 19.2 6.4 25.6 12.8s12.8 12.8 12.8 19.2v19.2h563.2v-147.2l-12.8-6.4c-25.6-12.8-51.2-25.6-64-51.2-19.2-25.6-25.6-51.2-25.6-83.2 0-25.6 6.4-57.6 25.6-83.2zM352 531.2c-6.4 0-19.2-6.4-25.6-12.8s-6.4-12.8-6.4-25.6v-102.4c0-6.4 0-19.2 6.4-25.6s12.8-12.8 25.6-12.8c6.4 0 19.2 6.4 25.6 12.8s12.8 19.2 12.8 25.6v102.4c0 6.4-6.4 19.2-12.8 25.6s-12.8 12.8-25.6 12.8z" />
<glyph unicode="&#xe912;" glyph-name="sun" d="M153.535 448c0 0.054 0 0.117 0 0.18 0 14.148-5.716 26.96-14.965 36.254l0.002-0.002c-9.47 9.067-22.268 14.723-36.385 14.963l-0.047 0.001h-50.745c-14.164-0.24-26.962-5.897-36.452-14.982l0.020 0.019c-9.2-9.38-14.878-22.243-14.878-36.432s5.678-27.052 14.886-36.44l-0.008 0.008c9.47-9.067 22.268-14.723 36.385-14.963l0.047-0.001h50.745c14.164 0.24 26.962 5.897 36.452 14.982l-0.020-0.019c9.247 9.292 14.963 22.104 14.963 36.252 0 0.063 0 0.127 0 0.19v-0.010zM186.064 192.325l-35.781-36.432c-9.247-9.292-14.963-22.104-14.963-36.252 0-0.063 0-0.127 0-0.19v0.010c0.362-27.879 22.866-50.383 50.71-50.744h0.034c0.054 0 0.117 0 0.18 0 14.148 0 26.96 5.716 36.254 14.965l-0.002-0.002 37.733 36.432c7.709 8.679 12.417 20.174 12.417 32.768 0 0.831-0.021 1.658-0.061 2.479l0.005-0.116c-1.346 26.389-22.404 47.447-48.669 48.788l-0.124 0.005c-1.064 0.073-2.306 0.115-3.558 0.115-12.953 0-24.866-4.454-34.291-11.913l0.116 0.088zM511.349 806.465c0.054 0 0.117 0 0.18 0 14.148 0 26.96 5.716 36.254 14.965l-0.002-0.002c9.067 9.47 14.723 22.268 14.963 36.385l0.001 0.047v50.745c-0.050 14.081-5.482 26.884-14.345 36.468l0.033-0.036c-9.38 9.2-22.243 14.878-36.432 14.878s-27.052-5.678-36.44-14.886l0.008 0.008c-9.067-9.47-14.723-22.268-14.963-36.385l-0.001-0.047v-50.745c0.24-14.164 5.897-26.962 14.982-36.452l-0.019 0.020c9.292-9.247 22.104-14.963 36.252-14.963 0.063 0 0.127 0 0.19 0h-0.010zM801.504 686.76c0.657-0.030 1.427-0.047 2.201-0.047 13.171 0 25.185 4.955 34.28 13.102l-0.049-0.043 35.781 35.781c5.488 4.539 9.888 10.189 12.889 16.623l0.122 0.292c2.87 5.887 4.741 12.757 5.197 20.010l0.008 0.157c0 0.048 0 0.105 0 0.163 0 7.434-1.433 14.534-4.038 21.037l0.135-0.381c-4.821 13.419-15.207 23.804-28.299 28.522l-0.326 0.103c-5.965 3.768-12.976 6.504-20.487 7.761l-0.331 0.046c-7.411-0.464-14.28-2.334-20.493-5.347l0.325 0.142c-6.726-3.123-12.376-7.523-16.851-12.932l-0.064-0.080-33.83-35.781c-8.868-9.5-14.313-22.295-14.313-36.362 0-0.024 0-0.049 0-0.073v0.004c-0.11-1.253-0.173-2.711-0.173-4.184 0-13.824 5.528-26.357 14.494-35.509l-0.008 0.009c8.981-7.951 20.818-12.857 33.798-13.011h0.032zM187.365 699.771c9.187-9.208 21.89-14.904 35.923-14.904 6.99 0 13.649 1.413 19.709 3.969l-0.333-0.125c7.032 2.010 12.997 5.869 17.531 11.019l0.035 0.040c9.233 8.891 14.967 21.358 14.967 35.165 0 0.217-0.001 0.433-0.004 0.65v-0.033c0.027 0.623 0.042 1.355 0.042 2.090 0 14.169-5.733 26.998-15.007 36.295l0.001-0.001-36.432 35.781c-4.441 4.936-9.861 8.897-15.965 11.592l-0.3 0.118c-5.887 2.469-12.729 3.904-19.905 3.904-0.092 0-0.185 0-0.277-0.001h0.014c-7.047-0.036-13.75-1.468-19.86-4.031l0.343 0.128c-6.475-3.023-12.047-6.722-16.984-11.12l0.069 0.060c-4.506-4.589-8.223-9.972-10.919-15.917l-0.141-0.347c-2.469-5.887-3.904-12.729-3.904-19.905 0-0.092 0-0.185 0.001-0.277v0.014c0.025-14.2 5.732-27.063 14.969-36.438l-0.006 0.006zM975.858 499.395h-50.745c-14.164-0.24-26.962-5.897-36.452-14.982l0.020 0.019c-9.2-9.38-14.878-22.243-14.878-36.432s5.678-27.052 14.886-36.44l-0.008 0.008c9.47-9.067 22.268-14.723 36.385-14.963l0.047-0.001h50.745c14.164 0.24 26.962 5.897 36.452 14.982l-0.020-0.019c9.2 9.38 14.878 22.243 14.878 36.432s-5.678 27.052-14.886 36.44l0.008-0.008c-9.47 9.067-22.268 14.723-36.385 14.963l-0.047 0.001zM837.936 192.325c-7.472 3.95-16.332 6.269-25.734 6.269-2.395 0-4.755-0.15-7.071-0.443l0.276 0.028c-22.226-4.103-39.485-21.363-43.537-43.256l-0.051-0.333c-0.264-2.040-0.414-4.4-0.414-6.795 0-9.402 2.319-18.262 6.416-26.039l-0.147 0.306 36.432-35.781c9.292-9.247 22.104-14.963 36.252-14.963 0.063 0 0.127 0 0.19 0h-0.010c27.879 0.362 50.383 22.866 50.744 50.71v0.034c0 0.054 0 0.117 0 0.18 0 14.148-5.716 26.96-14.965 36.254l0.002-0.002zM512.651 729.698c-0.148 0-0.324 0-0.501 0-155.937 0-282.348-126.412-282.348-282.348s126.412-282.348 282.348-282.348c155.937 0 282.348 126.412 282.348 282.348 0 78.005-31.633 148.622-82.771 199.723l-0.002 0.002c-51.088 51.050-121.644 82.623-199.575 82.623-0.053 0-0.106 0-0.159 0h0.008zM512.651 269.093c-37.067 0.023-71.521 11.193-100.196 30.34l0.659-0.414c-29.125 19.659-51.607 47.17-64.642 79.504l-0.415 1.167c-8.797 20.219-13.915 43.771-13.915 68.52 0 12.36 1.277 24.423 3.705 36.062l-0.199-1.141c13.99 70.841 68.591 125.879 138.071 140.323l1.152 0.2c10.498 2.23 22.561 3.506 34.921 3.506 24.748 0 48.301-5.118 69.658-14.354l-1.138 0.438c33.501-13.45 61.012-35.933 80.28-64.443l0.391-0.614c18.946-27.951 30.246-62.425 30.246-99.538 0-98.808-80.1-178.907-178.907-178.907-0.113 0-0.225 0-0.338 0h0.017zM512.651 89.535c-0.054 0-0.117 0-0.18 0-14.148 0-26.96-5.716-36.254-14.965l0.002 0.002c-9.067-9.47-14.723-22.268-14.963-36.385l-0.001-0.047v-53.997c0.24-14.164 5.897-26.962 14.982-36.452l-0.019 0.020c9.38-9.2 22.243-14.878 36.432-14.878s27.052 5.678 36.44 14.886l-0.008-0.008c8.83 9.548 14.263 22.351 14.313 36.422v50.755c-0.24 14.164-5.897 26.962-14.982 36.452l0.019-0.020c-8.882 10.502-21.78 17.367-36.294 18.21l-0.138 0.006z" />
<glyph unicode="&#xe913;" glyph-name="logo-shape" horiz-adv-x="1027" d="M1021.157 462.256l-139.041 335.689c-1.856 4.491-4.579 8.571-8.018 12.007-3.435 3.436-7.514 6.16-12.005 8.016l-335.775 139.155c-4.528 1.899-9.39 2.877-14.302 2.877s-9.774-0.978-14.302-2.877l-335.604-138.984c-4.489-1.859-8.568-4.583-12.003-8.019s-6.161-7.514-8.019-12.003l-139.212-335.861c-1.899-4.528-2.877-9.39-2.877-14.302s0.978-9.774 2.877-14.302l139.041-335.66c1.856-4.491 4.58-8.57 8.016-12.005 3.436-3.438 7.516-6.161 12.006-8.018l335.775-139.069c4.531-1.888 9.393-2.86 14.302-2.86s9.771 0.973 14.302 2.86l335.66 139.041c4.491 1.856 8.572 4.579 12.008 8.015s6.158 7.517 8.015 12.008l139.155 335.803c1.882 4.514 2.852 9.356 2.852 14.244 0 4.891-0.97 9.731-2.852 14.244v0zM677.917 47.736l-141.644 58.665 58.694 141.644 141.644-58.665-58.694-141.644zM346.347 47.736l-58.694 141.644 141.644 58.665 58.665-141.644-141.615-58.665zM111.799 282.284l58.665 141.644 141.644-58.694-58.666-141.644-141.644 58.694zM346.347 848.344l141.558-58.808-58.694-141.644-141.644 58.694 58.78 141.758zM677.945 848.344l58.58-141.758-141.558-58.609-58.751 141.558 141.73 58.808zM423.633 611.708c0.312-1.090 0.695-2.16 1.144-3.204l51.486-124.682-124.682 51.658c-1.058 0.429-2.117 0.801-3.204 1.144l-53.088 128.172 128.343-53.088zM333.847 501.156c1.001-0.515 2.031-1.001 3.061-1.43l124.682-51.658-124.682-51.629c-1.030-0.458-2.059-0.944-3.061-1.459l-128.287 53.031 128.287 53.145zM348.52 359.541c1.090 0.315 2.16 0.695 3.204 1.144l124.682 51.629-51.658-124.682c-0.429-1.058-0.801-2.117-1.144-3.175l-128.172-53.116 53.088 128.2zM600.688 284.4c-0.343 1.058-0.715 2.117-1.144 3.175l-51.743 124.682 124.682-51.772c1.035-0.443 2.094-0.827 3.175-1.144l53.116-128.2-128.086 53.259zM690.359 394.809c-1.001 0.515-2.031 1.001-3.061 1.459l-124.682 51.743 124.682 51.658c1.030 0.429 2.059 0.915 3.061 1.43l128.172-53.088-128.172-53.202zM675.686 536.453c-1.087-0.343-2.145-0.715-3.204-1.144l-124.682-51.543 51.658 124.682c0.429 1.058 0.801 2.117 1.144 3.204l128.172 53.088-53.088-128.286zM565.134 626.21c-0.515-1.001-1.001-2.002-1.459-3.061l-51.486-124.682-51.486 124.682c-0.458 1.058-0.944 2.059-1.459 3.061l52.773 128.286 53.116-128.286zM253.357 672.376l58.666-141.644-141.587-58.694-58.665 141.644 141.587 58.694zM458.901 269.584c0.515 1.010 1.001 2.039 1.459 3.089l51.486 124.653 51.486-124.653c0.458-1.050 0.944-2.079 1.459-3.089l-52.773-128.057-53.116 128.057zM770.677 223.418l-58.665 141.644 141.644 58.694 58.808-141.529-141.787-58.808zM853.627 472.067l-141.644 58.665 58.665 141.644 141.815-58.551-58.837-141.758zM849.050 784.13l52.773-127.4-127.971 53.003-53.031 128.086 127.399-52.773c0.192-0.062 0.369-0.166 0.518-0.304s0.266-0.308 0.34-0.497l-0.029-0.114zM511.474 923.972c0.18 0.076 0.375 0.115 0.572 0.115s0.392-0.039 0.572-0.115l127.399-52.773-128-52.888-127.971 53.002 127.428 52.659zM175.012 784.244c0.069 0.183 0.176 0.349 0.314 0.487s0.304 0.245 0.487 0.314l127.4 52.773-53.003-127.971-127.971-53.003 52.773 127.4zM35.971 447.439c-0.144 0.369-0.144 0.778 0 1.144l52.716 127.399 53.002-127.971-53.002-127.971-52.716 127.399zM175.012 111.636l-52.773 127.399 127.971-53.002 53.003-127.828-127.4 52.773c-0.339 0.114-0.624 0.349-0.801 0.658v0zM512.532-28.206c-0.369-0.143-0.778-0.143-1.144 0l-127.399 52.773 128.029 53.145 127.971-53.002-127.457-52.916zM849.079 111.636c-0.069-0.183-0.177-0.349-0.315-0.486s-0.303-0.246-0.486-0.315l-127.457-52.63 53.002 127.971 127.971 53.002-52.716-127.542zM988.12 447.439l-52.773-127.371-53.002 127.943 53.002 127.971 52.773-127.399c0.143-0.366 0.143-0.775 0-1.144v0z" />
<glyph unicode="&#xe914;" glyph-name="logo-type" horiz-adv-x="3222" d="M81.785 884.751v-130.914h405.663v-65.457h-405.663v-130.913h405.663v-65.457h-484.432v458.199h484.432v-65.457h-405.663zM968.058 633.398l87.71-141.39h-91.609l-82.708 133.513h-256.551v-133.513h-78.769v458.199h360.015c104.094 0 175.419-60.219 175.419-162.343 0.394-80.502-43.441-134.853-113.506-154.466zM625.097 690.978h248.714c49.743 0 129.615 0 129.615 96.886s-79.872 96.886-129.615 96.886h-248.714v-193.772zM1415.778 734.853h286.050v-242.845h-78.529v77.232c-46.474-49.742-121.108-83.81-220.554-83.81-168.881 0-274.948 89.048-274.948 235.677 0 145.959 106.067 235.638 294.561 235.638 183.296 0 272.305-77.233 279.631-182.627h-78.537c-6.577 43.323-37.337 117.169-200.862 117.169-192.433 0-215.985-115.2-215.985-170.181 0-55.65 24.222-170.22 215.985-170.22 150.567 0 200.862 81.171 200.862 118.508h-207.514l-0.161 65.457zM1754.171 721.738c0 145.999 86.41 235.008 288.020 235.008 200.862 0 288.020-89.679 288.020-235.008 0-145.959-87.040-236.307-288.020-236.307-201.61 0-288.020 89.678-288.020 236.307zM2251.674 721.738c0 126.346-69.392 169.354-209.483 169.354s-209.451-42.575-209.451-169.354c0-127.646 70.030-170.85 209.451-170.85s209.483 43.874 209.483 170.85zM449.008 72.842l82.471-133.514h-170.181l-68.096 114.53h-145.959v-114.53h-143.99v458.201h360.014c104.054 0 175.419-69.396 175.419-171.52 0-70.695-34.028-126.306-89.679-153.167zM147.244 175.596h183.296c26.821 0 64.117 0 64.117 50.412 0 49.743-37.296 49.743-64.117 49.743h-183.296v-100.155zM984.635 29.007h-236.308l-39.385-89.679h-159.074l213.386 458.201h206.218l212.677-458.201h-158.405l-39.109 89.679zM938.791 132.391l-72.31 164.313-72.665-164.313h144.975zM1346.974 275.751v-82.471h301.095v-121.777h-301.095v-132.214h-143.99v458.24h484.431v-121.777h-340.441zM1860.238 275.751v-82.471h301.095v-121.777h-301.095v-132.214h-143.99v458.24h484.431v-121.777h-340.441zM2700.698 61.066v-121.738h-471.276v458.201h143.99v-336.463h327.286zM2877.464 285.598v-68.096h340.283v-98.186h-340.283v-68.057h340.283v-111.931h-484.431v458.201h484.431v-111.931h-340.283z" />
<glyph unicode="&#xe915;" glyph-name="new-calendar" horiz-adv-x="1056" d="M1025.607 880.149h-31.175v79.851h-59.116v-80.007h-57.322v80.007h-59.116v-80.007h-57.322v80.007h-59.116v-80.007h-57.324v80.007h-59.115v-80.007h-57.324v80.007h-59.116v-80.007h-57.401v80.007h-59.115v-80.007h-57.402v80.007h-59.115v-80.007h-33.318c-6.719 0-13.161-2.67-17.912-7.423-4.75-4.753-7.418-11.199-7.418-17.921v-132.565c-1.909-22.459-39.865-450.918-171.463-599.314-3.252-3.647-5.378-8.159-6.122-12.989s-0.074-9.772 1.929-14.23c2.003-4.458 5.253-8.239 9.358-10.889 4.105-2.648 8.889-4.052 13.774-4.039h152.64v-107.73c0-6.721 2.669-13.167 7.418-17.92 4.751-4.753 11.195-7.423 17.912-7.423h822.24c6.719 0 13.161 2.67 17.912 7.423s7.418 11.199 7.418 17.92v881.835c0.009 3.331-0.636 6.632-1.901 9.713-1.267 3.081-3.127 5.883-5.476 8.244s-5.14 4.235-8.214 5.516c-3.074 1.281-6.369 1.942-9.7 1.948zM228.617 829.462h771.582v-82.854h-771.582v82.854zM226.395 695.921h771.31c-10.171-97.475-52.063-428.889-161.798-564.378h-760.165c104.475 163.796 141.963 475.872 150.653 564.378zM228.617-1.53v82.385h619.019c3.573 0 7.103 0.756 10.361 2.221s6.169 3.606 8.539 6.279c40.801 45.929 73.068 113.929 98.397 188.477 1.389 4.069 4.176 7.515 7.866 9.722 3.688 2.207 8.041 3.034 12.283 2.333 4.241-0.703 8.094-2.886 10.878-6.164 2.782-3.278 4.312-7.439 4.318-11.74v-273.514h-771.661z" />
<glyph unicode="&#xe916;" glyph-name="new-check" d="M506.718-53.519c-100.226 0.009-198.199 29.737-281.53 85.425s-148.276 134.835-186.625 227.434c-38.349 92.6-48.379 194.492-28.821 292.791s67.826 188.59 138.699 259.457c70.874 70.867 161.168 119.128 259.469 138.678s200.192 9.512 292.787-28.845c92.595-38.357 171.738-103.309 227.42-186.645s85.402-181.311 85.402-281.537c-0.157-134.359-53.603-263.171-148.615-358.175-95.010-95.002-223.828-148.439-358.187-148.584zM506.718 905.178c-89.383-0.008-176.758-26.521-251.073-76.185s-132.234-120.25-166.434-202.832c-34.2-82.582-43.143-173.45-25.701-261.115s60.489-168.189 123.695-231.388c63.206-63.201 143.734-106.24 231.4-123.675s178.534-8.482 261.111 25.726c82.579 34.207 153.16 92.133 202.817 166.453 49.659 74.32 76.163 161.696 76.163 251.078-0.135 119.828-47.799 234.709-132.533 319.435-84.734 84.728-199.62 132.38-319.447 132.503zM449.715 279.689l-185.916 168.028 38.48 41.306 147.611-133.449 303.234 271.21 38.26-41.523-341.67-305.572z" />
<glyph unicode="&#xe917;" glyph-name="new-tickt" horiz-adv-x="1646" d="M1616.934 647.208l28.76 4.526v308.266h-1586.408v-307.904l28.76-4.526c47.063-7.812 89.828-32.088 120.679-68.507 30.852-36.42 47.784-82.617 47.784-130.364s-16.933-93.945-47.784-130.364c-30.85-36.42-73.616-60.698-120.679-68.507l-28.76-4.528v-308.31h1586.408v307.767l-28.76 4.526c-47.062 7.812-89.827 32.088-120.677 68.507-30.852 36.42-47.784 82.619-47.784 130.364 0 47.748 16.933 93.947 47.784 130.366 30.85 36.42 73.615 60.696 120.677 68.507v0.181zM1379.802 448.426c-0.212-59.048 18.99-116.528 54.643-163.575 35.653-47.045 85.782-81.048 142.651-96.761v-183.212h-1090.752v60.648h-58.785v-60.648h-299.674v182.896c56.717 15.925 106.675 49.977 142.261 96.96 35.586 46.985 54.846 104.325 54.846 163.284s-19.26 116.301-54.846 163.286c-35.586 46.983-85.544 81.033-142.261 96.96v183.257h299.674v-53.859h58.785v53.859h1090.752v-182.895c-56.854-15.695-106.973-49.671-142.629-96.693-35.653-47.022-54.863-104.477-54.665-163.507zM489.269 707.964h-59.304v-88.958h59.304v88.958zM489.269 500.392h-59.304v-88.956h59.304v88.956zM489.269 278h-59.304v-74.13h59.304v74.13z" />
<glyph unicode="&#xe918;" glyph-name="new-piggy" horiz-adv-x="1167" d="M949.66 453.817c-5.002-5.449-10.586-10.219-16.634-14.208-13.407-8.769-28.739-13.4-44.365-13.4s-30.959 4.631-44.365 13.4c-6.043 3.981-11.62 8.752-16.607 14.208-1.71 1.87-3.74 3.353-5.974 4.367-2.236 1.012-4.631 1.533-7.051 1.535s-4.815-0.517-7.051-1.527c-2.236-1.010-4.268-2.491-5.979-4.359s-3.071-4.086-3.999-6.526c-0.927-2.441-1.405-5.058-1.406-7.701s0.474-5.26 1.4-7.702c0.924-2.442 2.28-4.662 3.99-6.532 11.427-12.492 24.997-22.401 39.932-29.162s30.944-10.241 47.112-10.241 32.176 3.48 47.112 10.241c14.935 6.761 28.505 16.67 39.932 29.162 1.775 1.852 3.191 4.071 4.17 6.53 0.977 2.459 1.496 5.107 1.524 7.788s-0.436 5.339-1.361 7.823c-0.927 2.482-2.298 4.738-4.034 6.633s-3.8 3.393-6.073 4.404c-2.274 1.012-4.708 1.518-7.163 1.487-2.454-0.030-4.878-0.596-7.129-1.664s-4.284-2.617-5.979-4.555zM527.947 769.233l-38.095-64.53 6.278-31.715 124.203 25.024-6.879 34.872-74.298-14.945 36.432 61.316-54.491 38.637 72.692 14.655-6.879 34.872-123.974-24.966 6.278-31.801 58.734-41.418zM1036.243 375.848c-5.729-7.745-8.734-17.203-8.537-26.872-0.074-7.13 1.483-14.18 4.548-20.602 4.904-10.003 13.382-16.481 23.219-16.481 4.976 0.034 9.806 1.701 13.764 4.748 8.419 6.3 14.002 18.271 14.002 32.335 0.189 9.676-2.837 19.138-8.595 26.872-2.159 3.123-5.033 5.672-8.375 7.434-3.343 1.76-7.057 2.681-10.826 2.681s-7.484-0.92-10.826-2.681c-3.343-1.762-6.215-4.311-8.375-7.434zM1153.622 430.085l-85.879 26.932c-10.72 39.051-28.48 75.816-52.405 108.49l8.453 111.9c0.938 12.635-1.603 25.288-7.351 36.58s-14.48 20.794-25.249 27.473c-10.769 6.679-23.162 10.28-35.832 10.41-12.672 0.131-25.137-3.212-36.042-9.668l-35.246-20.903-8.453 38.257c-2.888 12.845-9.243 24.652-18.376 34.137-9.132 9.486-20.69 16.284-33.419 19.657-12.727 3.371-26.138 3.19-38.769-0.528-12.631-3.719-24-10.828-32.872-20.559l-33.162-36.37 9.326 46.991c0.773 3.907-0.039 7.96-2.254 11.269l-75.453 112.688c-1.097 1.645-2.507 3.057-4.15 4.154-1.645 1.097-3.489 1.859-5.428 2.241l-133.269 26.481c-0.928 0.183-1.872 0.277-2.818 0.282-3.006 0.008-5.947-0.874-8.453-2.536l-112.701-75.445c-3.317-2.231-5.616-5.685-6.395-9.606l-26.4-133.112c-0.385-1.934-0.384-3.926 0.004-5.86 0.386-1.933 1.151-3.771 2.25-5.409l44.121-65.978c-89.118-54.907-144.848-134.296-161.134-228.194-9.465 0.858-18.658 3.628-27.019 8.141 16.37 25.525 23.75 60.486 22.004 103.983-1.747 43.498-23.612 61.247-43.419 62.909-21.92 1.859-47.897-15.044-56.885-56.991-3.765-19.129-3.518-38.832 0.725-57.86 4.244-19.030 12.392-36.97 23.929-52.687-6.176-2.976-12.878-4.709-19.723-5.099-42.488-2.818-93.88 38.286-99.176 97.362-0.433 4.857-2.779 9.342-6.52 12.469s-8.571 4.642-13.429 4.209c-4.857-0.434-9.343-2.779-12.471-6.52s-4.642-8.569-4.208-13.426c7.326-81.698 78.665-134.605 138.058-130.634 16.156 0.932 31.747 6.271 45.081 15.439 14.546-9.655 31.229-15.613 48.602-17.354-0.471-7.513-0.705-15.026-0.705-22.538 0-116.068 65.395-224.699 175.447-292.537v-67.613c0.014-19.5 7.766-38.196 21.553-51.987s32.483-21.548 51.984-21.57h25.864c11.315-0.013 22.51 2.324 32.874 6.863s19.672 11.181 27.336 19.505h0.818c15.447 0.016 30.575 4.389 43.648 12.616s23.56 19.977 30.255 33.896c4.649-0.141 9.326-0.226 14.087-0.226 24.082-0.006 48.132 1.736 71.96 5.212v-11.044c0.022-17.715 7.071-34.699 19.599-47.227s29.515-19.574 47.232-19.596h21.667c13.885 0.012 27.591 3.133 40.111 9.133s23.538 14.73 32.243 25.546h18.23c14.786 0.016 28.962 5.894 39.42 16.345s16.344 24.623 16.366 39.407v94.095c31.476 27.678 57.903 60.612 78.103 97.333l114.644 41.808c3.524 1.296 6.568 3.64 8.718 6.718 2.152 3.077 3.308 6.74 3.313 10.495v130.070c0.014 3.933-1.239 7.767-3.572 10.932-2.334 3.167-5.627 5.497-9.388 6.647zM181.577 468.146c-14.63 22.595-19.989 49.958-14.961 76.402 4.592 21.551 14.567 28.172 17.779 28.172h0.197c2.338-0.197 9.072-7.184 9.917-27.918 1.296-32.089-3.296-58.148-12.932-76.713v0.057zM938.024 710.762c5.145 3.055 11.029 4.64 17.013 4.581 5.983-0.058 11.836-1.759 16.919-4.915 5.084-3.155 9.203-7.646 11.91-12.983 2.705-5.335 3.895-11.312 3.438-17.277l-5.635-74.685c-25.695 26.369-54.862 49.116-86.695 67.613l-2.423 10.791 45.473 26.875zM385.199 740.483l23.442 118.126 100.136 66.964 118.166-23.439 66.973-100.124-23.47-118.124-37.332-24.989c-49.327 3.689-98.781-5.25-143.694-25.975l-37.388 7.438-66.832 100.123zM1129.841 383.461c-13.101-2.254-22.906-16.65-22.906-34.653 0-18.002 9.806-32.397 22.906-34.65v-18.791l-126.451-46.202c-0.701-0.082-1.397-0.204-2.084-0.367-1.225-0.31-2.414-0.744-3.55-1.296-8.266-3.991-17.381-5.902-26.553-5.568s-18.125 2.903-26.078 7.486c-4.198 2.29-9.127 2.848-13.731 1.553s-8.52-4.341-10.908-8.485c-2.389-4.143-3.062-9.055-1.874-13.689s4.14-8.617 8.227-11.101c17.663-10.293 38.264-14.379 58.52-11.607 3.589 0.463 7.147 1.15 10.651 2.057-3.504-0.907-7.062-1.594-10.651-2.057-17.956-24.327-39.034-46.188-62.69-65.021-8.227-6.62-16.905-12.902-25.809-18.903-2.18 0.896-4.517 1.356-6.875 1.352-4.773 0.001-9.356-1.863-12.773-5.195s-5.395-7.867-5.513-12.638c-0.013-0.159-0.013-0.32 0-0.478v-70.627c0-14.943-5.937-29.275-16.505-39.841s-24.901-16.502-39.845-16.502h-21.667c-8.008 0.006-15.685 3.191-21.348 8.853s-8.848 13.339-8.854 21.347v96.771c0 4.856-1.93 9.514-5.365 12.948-3.434 3.434-8.092 5.364-12.949 5.364s-9.515-1.93-12.95-5.364-5.364-8.092-5.364-12.948v-48.71c-23.803-3.747-47.864-5.632-71.96-5.635-10.171 0-20.427 0.338-30.514 0.986-12.171 0.789-24.315 2.141-36.346 3.889v49.441c0 4.857-1.93 9.514-5.364 12.948s-8.093 5.364-12.95 5.364-9.515-1.929-12.95-5.364c-3.434-3.434-5.364-8.091-5.364-12.948v-81.558c-0.014-12.039-4.805-23.582-13.318-32.095-8.515-8.513-20.059-13.302-32.099-13.317h-25.866c-9.789 0.016-19.172 3.912-26.093 10.835-6.919 6.924-10.809 16.31-10.817 26.098v90.151c-0.003 3.283-0.887 6.507-2.56 9.331-1.675 2.826-4.077 5.15-6.955 6.73s-6.128 2.358-9.41 2.254c-3.283-0.105-6.477-1.089-9.25-2.849-2.546-1.638-4.653-3.872-6.141-6.508 1.488 2.636 3.596 4.87 6.141 6.508-92.64 61.358-147.299 155.115-147.299 254.534 0 106.547 53.166 197.204 149.892 256.364l10.961-16.34c1.093-1.647 2.502-3.062 4.147-4.16s3.492-1.857 5.432-2.235l6.988-1.409c-5.015-3.465-9.946-7.127-14.764-10.931-2.979-2.354-5.154-5.575-6.22-9.219-1.068-3.644-0.976-7.528 0.262-11.119 1.237-3.589 3.561-6.705 6.647-8.917 3.086-2.21 6.784-3.408 10.582-3.426 4.095 0 8.069 1.39 11.269 3.944 33.473 26.5 73.057 44.186 115.131 51.44 42.073 7.255 85.294 3.846 125.711-9.915 4.603-1.554 9.635-1.216 13.989 0.94s7.674 5.952 9.228 10.555c1.554 4.603 1.216 9.635-0.94 13.987-2.156 4.354-5.953 7.672-10.556 9.226-7.917 2.817-23.92 6.958-23.92 6.958l13.693 9.156c3.322 2.219 5.632 5.663 6.424 9.579l3.493 17.692c1.086 0.744 2.087 1.603 2.988 2.564l4 4.338 1.268 1.409c6.030 6.564 16.454 17.973 29.697 32.482l35.866 39.441c4.358 4.773 9.941 8.258 16.142 10.081s12.782 1.911 19.028 0.255c6.248-1.655 11.921-4.99 16.406-9.644 4.484-4.653 7.607-10.447 9.029-16.751l11.27-49.836 1.549-6.929 2.649-11.832 7.692-34.202 0.423-1.832 5.635-25.354 3.099-13.776c0.913-4.053 3.174-7.675 6.414-10.275s7.268-4.023 11.422-4.036c1.355 0.012 2.704 0.162 4.029 0.45 2.347 0.526 4.569 1.51 6.537 2.896 1.969 1.384 3.644 3.145 4.931 5.177s2.162 4.3 2.573 6.67 0.35 4.8-0.179 7.147l-0.535 2.423-0.788 3.465c8.077-5.803 15.881-11.887 23.413-18.254 4.639-3.944 9.176-7.982 13.609-12.114 36.253-33.354 64.156-74.764 81.455-120.886l-5.438 1.719c-2.314 0.791-4.761 1.11-7.199 0.94s-4.817-0.827-6.997-1.931-4.118-2.634-5.698-4.498c-1.58-1.864-2.771-4.026-3.502-6.357s-0.989-4.787-0.757-7.22 0.949-4.795 2.108-6.946c1.159-2.15 2.736-4.048 4.64-5.581s4.095-2.668 6.445-3.339l121.266-38.032 0.169-15.833z" />
<glyph unicode="&#xe919;" glyph-name="new-hand" horiz-adv-x="980" d="M551.826-63.994h-54.291c-16.776-0.022-33.363 3.496-48.66 10.32l-144.634 64.32c-56.415 25.068-170.45 15.623-221.908-18.362-5.081-3.357-11.3-4.576-17.287-3.387-5.987 1.188-11.253 4.686-14.639 9.724s-4.615 11.201-3.416 17.137c1.199 5.935 4.727 11.156 9.808 14.512 64.1 42.376 196.021 53.26 266.283 22.013l144.634-64.317c9.373-4.187 19.538-6.341 29.819-6.32h54.291c17.56-0.057 34.551 6.176 47.844 17.554l283.955 244.775c3.994 3.436 7.207 7.674 9.428 12.431 2.221 4.759 3.398 9.928 3.455 15.171 0.057 5.241-1.008 10.436-3.125 15.24-2.118 4.804-5.238 9.109-9.157 12.63-5.707 5.113-12.859 8.366-20.49 9.32s-15.375-0.436-22.184-3.983l-243.086-127.409c-11.226-5.898-16.22 3.299-22.17 14.428s-10.625 20.013 0.638 25.912l243.086 127.585c18.109 9.501 39.109 12.069 59.003 7.213s37.294-16.795 48.883-33.545 16.56-37.14 13.964-57.287c-2.595-20.148-12.573-38.646-28.036-51.972l-283.955-244.775c-21.644-18.666-49.367-28.941-78.054-28.929zM558.914 320.070c-11.026-0.006-21.909 2.465-31.83 7.227-9.92 4.762-18.618 11.69-25.438 20.262-33.501 41.725-83.594 75.399-136.669 111.043-100.149 67.28-213.691 143.522-213.691 290.841 0 84.961 37.658 134.63 69.24 161.345 38.843 31.943 87.798 49.362 138.304 49.212 66.506 0 130.7-30.652 180.758-86.296 2.431-2.72 5.424-4.893 8.776-6.373s6.987-2.231 10.657-2.204c3.673-0.027 7.311 0.727 10.664 2.213s6.343 3.668 8.768 6.399c49.203 54.836 115.282 86.261 181.184 86.261 49.788 0.133 98.067-16.908 136.528-48.192 31.795-26.609 69.666-76.384 69.666-162.435 0-146.897-112.902-222.754-212.553-289.681-53.289-35.82-103.665-69.67-137.024-111.816-6.774-8.65-15.455-15.655-25.378-20.486s-20.831-7.357-31.892-7.389l-0.070 0.070zM358.83 914.373c-39.519 0.191-77.849-13.372-108.284-38.315-34.709-29.351-53.077-73.149-53.077-126.545 0-123.029 93.967-186.301 193.441-253.089 53.608-35.995 109.030-73.219 146.9-120.393 2.504-3.176 5.705-5.746 9.361-7.518s7.671-2.699 11.742-2.711c4.074 0.029 8.088 0.974 11.738 2.765s6.84 4.378 9.33 7.57c37.835 47.805 93.575 85.241 147.468 121.446 98.905 66.437 192.304 129.216 192.304 251.894 0 130.060-100.574 164.931-159.868 164.931-52.863 0-106.366-25.837-146.758-70.901-6.777-7.536-15.088-13.568-24.389-17.7s-19.381-6.269-29.576-6.272c-10.177-0.009-20.24 2.112-29.529 6.226s-17.591 10.125-24.364 17.641c-41.352 45.767-93.292 70.971-146.439 70.971zM541.864 99.095c-5.581 0.013-11.146 0.638-16.59 1.862l-138.723 31.345c-3.005 0.6-5.857 1.791-8.392 3.506s-4.697 3.918-6.362 6.479c-1.665 2.56-2.798 5.429-3.332 8.432-0.532 3.005-0.456 6.084 0.225 9.058 0.68 2.974 1.953 5.783 3.743 8.259 1.789 2.477 4.058 4.57 6.674 6.16s5.525 2.639 8.556 3.091c3.031 0.451 6.121 0.294 9.089-0.464l138.547-31.38c5.004-1.188 10.241-0.992 15.142 0.566s9.28 4.419 12.667 8.275 5.651 8.561 6.548 13.605c0.898 5.042 0.392 10.234-1.458 15.013-1.35 3.635-3.448 6.951-6.159 9.735s-5.974 4.974-9.585 6.429l-160.644 66.133c-64.69 26.776-137.258 27.695-202.613 2.566l-157.396-60.16c-2.832-1.181-5.874-1.782-8.944-1.77s-6.107 0.636-8.93 1.837c-2.823 1.201-5.375 2.954-7.505 5.154-2.13 2.202-3.796 4.805-4.897 7.658s-1.615 5.897-1.513 8.953c0.102 3.054 0.819 6.056 2.108 8.831s3.125 5.26 5.397 7.316 4.937 3.635 7.834 4.646l157.395 60.195c76.292 29.286 160.98 28.217 236.5-2.987l160.856-66.203c16.059-6.388 29.368-18.164 37.626-33.289s10.944-32.65 7.592-49.538c-3.351-16.89-12.528-32.080-25.942-42.944-13.414-10.865-30.223-16.718-47.515-16.546v0.176z" />
<glyph unicode="&#xe91a;" glyph-name="new-share" horiz-adv-x="1152" d="M255.833 903.126h197.065c10.807-0.003 21.214-4.11 29.111-11.49 7.902-7.38 12.706-17.483 13.44-28.268 0.738-10.785-2.645-21.448-9.468-29.833s-16.572-13.87-27.281-15.343l-5.803-0.398h-197.065c-32.433 0.004-63.66-12.305-87.367-34.439s-38.128-52.442-40.348-84.8l-0.285-8.761v-540.442c-0.004-32.435 12.305-63.663 34.439-87.369 22.134-23.71 52.442-38.131 84.8-40.35l8.761-0.282h540.446c32.431-0.004 63.659 12.301 87.364 34.436 23.71 22.135 38.131 52.442 40.35 84.8l0.286 8.764v28.331c-0.098 10.88 3.968 21.385 11.366 29.367 7.394 7.983 17.562 12.838 28.42 13.572 10.854 0.734 21.585-2.709 29.986-9.621 8.405-6.916 13.845-16.781 15.219-27.575l0.341-5.743v-28.331c0.004-54.613-20.937-107.149-58.509-146.786-37.572-39.633-88.913-63.351-143.45-66.266l-11.375-0.282h-540.446c-54.613-0.009-107.148 20.932-146.784 58.505s-63.352 88.913-66.265 143.45l-0.284 11.379v540.442c-0.005 54.613 20.935 107.148 58.507 146.784s88.913 63.352 143.449 66.265l11.377 0.285zM696.892 758.401v158.948c-0.004 7.848 2.155 15.545 6.242 22.245s9.946 12.143 16.926 15.73c6.98 3.587 14.814 5.18 22.639 4.602 7.829-0.577 15.343-3.303 21.722-7.875l4.663-3.925 340.992-327.111c15.932-15.246 17.408-39.822 4.382-56.718l-4.382-4.836-340.992-327.226c-5.658-5.436-12.706-9.207-20.369-10.897-7.663-1.694-15.646-1.237-23.066 1.314-7.424 2.556-13.995 7.104-18.999 13.15-5.001 6.046-8.239 13.355-9.357 21.124l-0.401 6.089v159.403l-18.261 0.341c-151.211 0.452-280.461-61.611-390.541-187.793-28.217-32.311-81.067-7.509-74.297 34.816 47.047 292.41 204.8 457.672 465.922 486.913l17.178 1.707z" />
<glyph unicode="&#xe91b;" glyph-name="new-pin" d="M623.386 944.31c4.643 0.008 9.237-0.898 13.527-2.667s8.188-4.366 11.472-7.643l349.572-349.571c6.621-6.624 10.339-15.604 10.339-24.964 0-9.364-3.718-18.344-10.339-24.964-33.898-33.898-75.705-41.525-106.143-41.525-12.5 0-23.658 1.271-32.486 2.754l-221.325-221.325c5.826-23.478 9.608-47.411 11.299-71.539 3.249-49.576-2.26-119.137-50.847-167.724-6.621-6.621-15.6-10.339-24.964-10.339-9.361 0-18.34 3.718-24.964 10.339l-199.785 199.715-224.715-224.715c-13.771-13.771-86.087-63.7-99.858-49.929s36.158 86.157 49.929 99.858l224.715 224.715-199.715 199.786c-6.62 6.621-10.338 15.6-10.338 24.964 0 9.361 3.719 18.34 10.338 24.964 48.587 48.587 118.148 54.166 167.724 50.847 24.128-1.691 48.064-5.473 71.539-11.299l221.324 221.253c-1.847 10.754-2.79 21.645-2.825 32.556 0 30.367 7.627 72.174 41.596 106.143 6.621 6.601 15.582 10.309 24.929 10.311v0z" />
</font>
</defs>
</svg>
